<?xml version="1.0" standalone="no"?>
<!DOCTYPE svg PUBLIC "-//W3C//DTD SVG 20010904//EN"
 "http://www.w3.org/TR/2001/REC-SVG-20010904/DTD/svg10.dtd">
<svg version="1.0" xmlns="http://www.w3.org/2000/svg"
 width="1178.000000pt" height="1178.000000pt" viewBox="0 0 1178.000000 1178.000000"
 preserveAspectRatio="xMidYMid meet">
<metadata>
Created by potrace 1.14, written by Peter Selinger 2001-2017
</metadata>
<g transform="translate(0.000000,1178.000000) scale(0.100000,-0.100000)"
fill="#000000" stroke="none">
<path d="M3645 10380 c-507 -116 -968 -472 -1101 -851 -27 -76 -34 -85 -112
-156 -45 -42 -84 -74 -86 -72 -2 2 9 43 24 91 97 294 105 683 19 890 -39 92
-41 93 -115 15 -111 -116 -195 -262 -266 -461 -113 -317 -121 -596 -21 -825
12 -29 23 -57 23 -62 0 -5 -37 -57 -82 -116 -45 -60 -104 -136 -130 -171 l-47
-62 0 207 c1 236 -12 340 -67 542 -49 178 -143 371 -181 371 -20 0 -33 -17
-87 -115 -141 -257 -204 -542 -192 -875 8 -265 44 -392 154 -553 63 -93 63
-125 -5 -272 -27 -61 -56 -125 -63 -142 -7 -18 -16 -33 -20 -33 -4 0 -10 25
-14 56 -11 99 -66 305 -112 424 -49 124 -131 279 -196 369 -65 88 -178 221
-189 221 -14 0 -47 -81 -64 -159 -44 -193 -56 -406 -35 -581 46 -370 153 -618
352 -813 63 -62 88 -93 84 -104 -4 -9 -20 -93 -37 -187 -17 -94 -35 -189 -41
-211 l-10 -40 -43 115 c-119 323 -324 618 -565 814 -73 59 -188 132 -195 124
-3 -3 -10 -32 -15 -64 -29 -174 14 -483 100 -729 70 -199 211 -441 333 -572
73 -78 177 -158 264 -202 34 -17 66 -39 71 -48 5 -10 12 -118 14 -240 l5 -221
-39 60 c-107 166 -290 369 -441 490 -141 112 -377 247 -467 264 -28 6 -30 4
-32 -22 -11 -179 122 -554 281 -794 161 -243 377 -445 566 -530 35 -16 99 -40
142 -55 l78 -25 39 -153 c21 -83 49 -186 62 -227 13 -41 24 -79 24 -85 0 -5
-37 27 -82 71 -237 231 -538 401 -844 475 -230 56 -248 48 -191 -86 164 -388
494 -737 860 -910 120 -57 216 -83 357 -96 63 -6 121 -16 127 -21 7 -6 38 -59
68 -119 31 -61 71 -136 90 -167 18 -31 31 -59 29 -61 -2 -2 -21 7 -41 21 -198
133 -494 247 -737 283 -105 15 -397 20 -446 6 -38 -11 -35 -41 12 -112 93
-139 308 -338 483 -447 350 -216 698 -304 972 -244 47 11 88 15 96 10 8 -4 70
-72 138 -150 68 -79 129 -149 136 -156 22 -23 15 -23 -27 -2 -52 27 -253 84
-372 107 -129 24 -541 25 -673 0 -181 -33 -375 -101 -375 -131 0 -33 181 -173
327 -252 256 -140 543 -225 824 -244 241 -16 432 16 606 100 45 22 91 40 103
40 12 0 59 -29 105 -65 46 -35 119 -90 162 -121 61 -44 72 -55 48 -50 -65 14
-382 18 -475 7 -180 -22 -354 -63 -515 -121 -100 -36 -318 -146 -344 -174 -23
-25 -24 -27 -7 -45 31 -34 227 -127 358 -170 264 -86 549 -123 797 -103 162
13 345 51 446 93 66 27 96 45 219 129 39 26 63 35 107 38 49 4 66 0 135 -33
44 -21 122 -55 174 -76 52 -21 86 -38 75 -39 -38 -1 -270 -28 -300 -35 -373
-87 -716 -262 -947 -486 -71 -68 -66 -83 35 -114 166 -52 293 -69 522 -69 187
0 227 3 360 27 389 71 687 226 860 447 44 56 57 60 148 39 165 -38 611 -107
712 -111 55 -2 64 15 74 131 5 57 7 109 4 116 -8 22 -53 33 -213 50 -85 9
-195 23 -245 31 -198 32 -624 142 -652 168 -10 9 -7 29 13 91 54 174 59 210
58 400 0 146 -5 199 -22 280 -102 463 -264 779 -558 1088 -36 37 -68 67 -73
67 -41 0 -66 -78 -102 -315 -16 -104 -16 -384 0 -505 49 -379 179 -716 359
-928 31 -37 63 -75 70 -84 17 -21 -243 90 -438 188 -110 55 -317 171 -337 188
-1 1 19 45 46 98 97 194 134 366 133 633 0 302 -53 568 -168 843 -92 220 -244
462 -290 462 -34 0 -127 -237 -174 -440 -102 -443 -66 -911 99 -1282 58 -129
66 -130 -127 26 -218 176 -355 306 -530 506 l-30 35 68 71 c179 188 291 423
355 738 55 274 55 527 1 786 -41 195 -61 230 -107 195 -94 -72 -257 -302 -348
-490 -145 -300 -206 -558 -199 -855 1 -87 0 -156 -3 -152 -47 54 -252 389
-319 522 -50 99 -51 105 -34 118 11 7 53 34 94 61 102 65 174 133 263 249 216
281 332 582 368 949 13 135 8 248 -12 281 -7 12 -17 22 -20 22 -24 0 -229
-160 -327 -254 -248 -238 -428 -566 -496 -903 l-23 -116 -41 115 c-69 196
-168 567 -158 593 2 7 33 22 68 35 308 111 579 389 762 781 94 203 157 488
112 505 -17 7 -164 -55 -253 -105 -265 -151 -520 -413 -656 -673 -24 -46 -54
-108 -67 -138 l-23 -55 -14 95 c-7 52 -16 213 -19 357 l-7 262 24 9 c13 6 80
23 149 39 355 85 646 303 867 653 52 82 123 218 123 235 0 32 -28 39 -103 25
-86 -15 -230 -48 -260 -60 -212 -82 -317 -135 -445 -227 -71 -50 -257 -229
-287 -275 -39 -62 -39 -32 0 193 27 150 88 416 99 426 4 4 38 2 77 -5 38 -7
112 -12 165 -12 215 0 511 102 734 252 170 115 390 335 390 389 0 29 -38 34
-255 34 -210 0 -310 -14 -484 -67 -108 -32 -319 -141 -425 -217 -92 -68 -98
-70 -92 -44 23 91 218 531 243 546 5 3 39 -8 76 -24 109 -46 213 -64 372 -63
295 1 572 86 822 250 95 62 116 90 87 112 -109 83 -459 143 -711 121 -160 -14
-334 -60 -455 -121 -21 -10 -38 -16 -38 -13 0 20 228 341 248 350 7 2 26 -2
42 -10 16 -8 69 -25 117 -36 76 -18 109 -21 238 -16 220 7 392 51 590 150 182
90 395 253 382 291 -2 6 -30 18 -63 28 -256 76 -610 71 -876 -12 -51 -16 -94
-27 -97 -24 -3 2 31 40 75 84 61 59 89 80 115 84 19 3 69 10 113 16 95 14 157
35 284 95 254 120 482 318 650 563 61 89 172 295 172 318 0 37 -80 43 -205 14z"/>
<path d="M7953 10389 c-14 -14 -1 -54 57 -169 151 -302 460 -603 764 -745 111
-52 265 -95 342 -95 49 0 57 -4 111 -49 32 -27 80 -72 107 -99 l49 -51 -121
40 c-293 95 -579 105 -860 29 -106 -29 -109 -44 -19 -125 173 -157 455 -292
712 -341 170 -32 436 -16 508 30 49 32 89 22 130 -32 101 -132 216 -308 195
-299 -131 56 -207 83 -289 103 -227 56 -546 47 -764 -22 -75 -24 -165 -65
-165 -76 0 -25 27 -51 107 -101 290 -183 573 -269 835 -253 133 8 186 18 315
57 56 18 108 29 115 26 15 -5 102 -176 167 -330 42 -99 101 -253 101 -265 0
-3 -12 6 -27 19 -164 150 -543 318 -833 370 -160 28 -372 9 -410 -36 -18 -22
18 -72 142 -197 200 -199 450 -344 724 -418 106 -29 321 -38 416 -17 50 11 70
12 77 3 21 -25 106 -441 125 -606 l6 -55 -32 40 c-223 271 -503 450 -844 536
-171 43 -214 46 -238 20 -20 -22 -20 -22 18 -99 149 -304 421 -578 721 -727
118 -58 194 -81 312 -95 41 -4 80 -13 87 -20 23 -23 3 -646 -24 -714 -8 -21
-8 -21 -16 -1 -4 11 -16 43 -26 70 -61 159 -192 349 -353 510 -162 164 -334
281 -514 352 -90 36 -94 37 -107 18 -16 -22 -14 -40 27 -214 86 -362 356 -766
635 -948 50 -32 136 -77 192 -99 70 -27 102 -44 102 -55 0 -84 -176 -679 -201
-679 -3 0 -12 33 -19 72 -44 250 -178 543 -343 748 -95 119 -285 300 -380 364
-106 71 -129 72 -139 6 -28 -188 33 -548 132 -783 137 -322 322 -556 538 -683
75 -44 77 -55 26 -151 -109 -207 -285 -490 -317 -510 -7 -4 -8 23 -4 83 25
345 -107 804 -321 1125 -85 127 -227 289 -253 289 -28 0 -44 -34 -74 -158 -61
-260 -69 -504 -26 -752 64 -369 175 -614 373 -825 59 -63 60 -67 47 -91 -45
-85 -591 -588 -697 -643 l-23 -12 26 51 c69 136 131 329 161 505 35 202 28
559 -16 776 -40 197 -141 478 -180 499 -26 14 -50 -8 -124 -119 -172 -257
-304 -635 -336 -960 -14 -146 -12 -328 5 -461 21 -165 38 -224 113 -383 36
-77 44 -102 36 -115 -16 -25 -134 -93 -344 -198 -182 -91 -410 -189 -410 -176
0 4 14 23 31 42 147 171 230 327 307 576 117 374 132 702 53 1094 -29 142 -54
152 -143 58 -269 -287 -436 -590 -529 -959 -78 -312 -79 -528 -3 -784 14 -50
27 -97 28 -105 3 -39 -509 -166 -847 -210 -87 -11 -173 -20 -191 -20 -19 0
-44 -8 -56 -18 -22 -18 -22 -22 -15 -125 4 -58 12 -113 19 -123 15 -20 50 -20
211 0 145 18 457 70 540 91 105 25 117 22 165 -40 224 -290 686 -468 1220
-468 198 -1 304 12 480 58 65 17 101 32 114 48 18 22 18 22 -25 60 -228 200
-398 307 -640 401 -140 55 -363 111 -505 128 -57 7 -104 16 -104 20 0 4 5 8
10 8 6 0 92 36 191 80 l181 80 82 -62 c175 -133 401 -206 698 -227 243 -18
556 24 790 105 121 42 319 137 345 166 18 20 17 21 -16 49 -88 73 -378 197
-561 238 -216 50 -540 69 -725 42 -38 -6 -70 -9 -72 -7 -2 2 104 80 318 233
19 14 36 19 47 14 9 -4 51 -23 92 -44 214 -104 463 -129 770 -76 303 52 547
147 780 302 100 66 200 153 200 173 0 19 -41 38 -172 78 -170 51 -272 67 -474
73 -269 8 -482 -22 -697 -97 l-108 -38 58 66 c159 184 219 247 235 250 10 2
50 -4 88 -12 254 -58 675 52 985 257 149 99 320 259 442 414 81 104 82 124 3
136 -80 12 -361 1 -460 -18 -235 -45 -462 -133 -660 -254 -36 -21 -67 -38 -69
-36 -2 2 15 37 36 77 22 40 62 114 88 163 26 50 52 96 58 103 5 7 32 12 62 12
122 0 314 54 470 132 337 169 650 507 806 868 22 51 39 100 37 109 -5 26 -65
25 -194 -4 -311 -70 -619 -237 -860 -467 -40 -37 -74 -68 -77 -68 -6 0 100
419 111 439 4 7 46 26 94 42 158 51 263 116 416 257 218 200 378 447 472 731
62 186 97 389 70 406 -14 9 -168 -59 -270 -119 -239 -139 -455 -346 -612 -584
-29 -44 -59 -88 -66 -98 -10 -16 -11 25 -6 216 3 129 8 238 11 243 2 4 32 21
66 38 176 89 355 279 481 513 93 172 181 439 205 622 16 120 23 314 14 363
-13 70 -29 72 -109 16 -303 -211 -520 -498 -669 -885 -24 -63 -44 -113 -45
-110 0 3 -18 97 -40 210 -22 113 -40 216 -40 230 0 18 22 45 83 101 95 88 159
187 231 358 136 322 162 669 77 1031 -39 167 -50 173 -135 78 -223 -254 -357
-557 -406 -917 -13 -95 -24 -118 -36 -79 -3 13 -38 96 -76 186 l-70 163 47 69
c68 102 113 207 143 334 24 102 27 128 27 321 0 245 -19 369 -85 568 -44 132
-127 301 -165 337 -24 23 -25 23 -46 4 -40 -36 -117 -208 -163 -364 -50 -169
-60 -258 -61 -507 0 -127 -3 -229 -7 -227 -4 3 -35 44 -69 92 -34 48 -79 107
-99 132 -20 25 -48 63 -63 84 l-26 39 21 40 c11 22 31 83 44 136 76 296 -20
736 -228 1039 -64 93 -161 196 -179 190 -31 -10 -85 -246 -95 -416 -10 -168
29 -428 91 -601 15 -42 14 -44 -2 -30 -10 9 -44 37 -75 63 -66 55 -91 91 -117
169 -43 133 -177 319 -314 438 -232 201 -536 351 -806 400 -120 22 -153 23
-168 8z"/>
<path d="M3770 8343 c-53 -36 -62 -76 -44 -186 20 -114 24 -117 180 -117 l124
0 6 -27 c9 -35 -2 -1171 -16 -1653 -39 -1384 -48 -1598 -66 -1627 -14 -21 -21
-23 -119 -23 -144 0 -197 -25 -211 -98 -8 -42 12 -168 32 -199 l14 -23 559 0
558 0 34 23 c63 42 72 152 22 256 l-18 36 -118 5 c-86 4 -120 9 -126 19 -18
29 -22 371 -19 1626 l3 1290 22 -70 c12 -38 38 -128 58 -200 151 -536 338
-1105 645 -1965 134 -377 233 -613 263 -633 33 -21 303 -39 392 -26 141 20
237 91 299 222 155 330 575 1620 806 2477 23 85 45 159 49 163 4 4 11 -115 14
-265 10 -422 21 -2538 13 -2580 -8 -44 -16 -47 -131 -57 -49 -4 -100 -14 -113
-22 -48 -30 -66 -125 -41 -224 21 -82 -26 -76 639 -75 641 1 633 0 658 55 14
30 15 120 3 185 -14 71 -33 80 -165 80 -74 0 -118 4 -129 13 -20 14 -28 178
-47 877 -6 217 -15 505 -20 640 -16 403 -29 1298 -22 1555 l7 240 110 7 c61 3
121 11 135 16 62 24 82 93 61 206 -19 105 38 96 -616 96 -538 0 -573 -1 -588
-18 -23 -25 -42 -82 -92 -282 -53 -214 -96 -373 -170 -635 -32 -110 -65 -229
-75 -265 -10 -36 -50 -175 -90 -310 -39 -135 -87 -297 -105 -360 -67 -228
-293 -971 -322 -1059 -10 -30 -23 -56 -30 -58 -13 -5 -44 89 -193 602 -117
400 -157 531 -315 1025 -139 436 -265 842 -340 1100 -61 209 -75 244 -100 254
-9 3 -292 6 -629 6 -558 0 -614 -1 -636 -17z"/>
</g>
</svg>
